HIERARCHY
ROOT SpineBase
{
  OFFSET 0.000000 0.000000 0.000000
  CHANNELS 6 Xposition Yposition Zposition Zrotation Xrotation Yrotation
  JOINT SpineMid
  {
    OFFSET 0.000000 30.688896 0.000000
    CHANNELS 3 Zrotation Xrotation Yrotation
    JOINT SpineShoulder
    {
      OFFSET 0.229958 22.765567 -0.721004
      CHANNELS 3 Zrotation Xrotation Yrotation
      JOINT Neck
      {
        OFFSET 0.191462 7.527515 -0.547523
        CHANNELS 3 Zrotation Xrotation Yrotation
        JOINT Head
        {
          OFFSET 4.028860 13.578353 1.249083
          CHANNELS 3 Zrotation Xrotation Yrotation
          End Site
          {
            OFFSET 0 0 0
          }
        }
      }
      JOINT ShoulderLeft
      {
        OFFSET -11.101996 -1.888699 -12.282893
        CHANNELS 3 Zrotation Xrotation Yrotation
        JOINT ElbowLeft
        {
          OFFSET -6.202810 -25.178770 -6.343625
          CHANNELS 3 Zrotation Xrotation Yrotation
          JOINT WristLeft
          {
            OFFSET 0.080970 -23.345416 -4.751119
            CHANNELS 3 Zrotation Xrotation Yrotation
            JOINT HandLeft
            {
              OFFSET 1.218321 -8.767983 0.668252
              CHANNELS 3 Zrotation Xrotation Yrotation
              JOINT HandTipLeft
              {
                OFFSET 0.513345 -8.306324 0.457933
                CHANNELS 3 Zrotation Xrotation Yrotation
                End Site
                {
                  OFFSET 0 0 0
                }
              }
              JOINT ThumbLeft
              {
                OFFSET 3.946989 0.418995 1.495816
                CHANNELS 3 Zrotation Xrotation Yrotation
                End Site
                {
                  OFFSET 0 0 0
                }
              }
            }
          }
        }
      }
      JOINT ShoulderRight
      {
        OFFSET 11.435313 -3.642166 13.090005
        CHANNELS 3 Zrotation Xrotation Yrotation
        JOINT ElbowRight
        {
          OFFSET 2.014463 -30.149672 5.028704
          CHANNELS 3 Zrotation Xrotation Yrotation
          JOINT WristRight
          {
            OFFSET 1.381376 -23.845870 -3.221278
            CHANNELS 3 Zrotation Xrotation Yrotation
            JOINT HandRight
            {
              OFFSET -0.388601 -1.203506 1.098102
              CHANNELS 3 Zrotation Xrotation Yrotation
              JOINT HandTipRight
              {
                OFFSET 0.160900 -9.184270 -0.556047
                CHANNELS 3 Zrotation Xrotation Yrotation
                End Site
                {
                  OFFSET 0 0 0
                }
              }
              JOINT ThumbRight
              {
                OFFSET 2.506326 -2.116274 0.217169
                CHANNELS 3 Zrotation Xrotation Yrotation
                End Site
                {
                  OFFSET 0 0 0
                }
              }
            }
          }
        }
      }
    }
  }
  JOINT HipLeft
  {
    OFFSET -3.667874 1.747967 -8.181835
    CHANNELS 3 Zrotation Xrotation Yrotation
    JOINT KneeLeft
    {
      OFFSET -6.293370 -36.910373 -0.209674
      CHANNELS 3 Zrotation Xrotation Yrotation
      JOINT AnkleLeft
      {
        OFFSET -5.735673 -35.037021 9.671273
        CHANNELS 3 Zrotation Xrotation Yrotation
        JOINT FootLeft
        {
          OFFSET 2.276874 -6.447534 -4.597482
          CHANNELS 3 Zrotation Xrotation Yrotation
          End Site
          {
            OFFSET 0 0 0
          }
        }
      }
    }
  }
  JOINT HipRight
  {
    OFFSET 6.422922 0.213884 1.725309
    CHANNELS 3 Zrotation Xrotation Yrotation
    JOINT KneeRight
    {
      OFFSET 2.423082 -37.485096 0.970227
      CHANNELS 3 Zrotation Xrotation Yrotation
      JOINT AnkleRight
      {
        OFFSET -0.395548 -36.793688 10.633803
        CHANNELS 3 Zrotation Xrotation Yrotation
        JOINT FootRight
        {
          OFFSET 3.665375 -6.341284 -3.776222
          CHANNELS 3 Zrotation Xrotation Yrotation
          End Site
          {
            OFFSET 0 0 0
          }
        }
      }
    }
  }
}
MOTION
Frames: 12
Frame Time: 0.033333
-123.738061 80.520954 287.509550 -0.000000 0.000000 -44.473836 -0.000000 0.000000 44.473836 -0.000000 0.000000 0.000000 -0.000000 0.000000 0.000000 0.000000 0.000000 0.000000 -0.000000 0.000000 0.000000 -0.000000 0.000000 0.000000 -0.000000 0.000000 0.000000 -0.000000 0.000000 0.000000 0.000000 0.000000 0.000000 0.000000 0.000000 0.000000 -0.000000 0.000000 0.000000 -0.000000 0.000000 0.000000 -0.000000 0.000000 0.000000 -0.000000 0.000000 0.000000 0.000000 0.000000 0.000000 0.000000 0.000000 0.000000 -0.000000 0.000000 44.473836 -0.000000 0.000000 0.000000 -0.000000 0.000000 0.000000 0.000000 0.000000 0.000000 -0.000000 0.000000 44.473836 -0.000000 0.000000 0.000000 -0.000000 0.000000 0.000000 0.000000 0.000000 0.000000
-123.658427 80.499225 287.723992 0.193299 -0.132600 -44.760458 -0.230622 -0.041957 44.760597 -0.000000 0.000000 0.000000 -0.000000 0.000000 0.000000 0.000000 0.000000 0.000000 -0.000000 0.000000 0.000000 1.387560 0.464378 -0.286166 0.994970 -2.124673 0.278207 -1.997098 6.095688 0.355178 0.000000 0.000000 0.000000 0.000000 0.000000 0.000000 -0.000000 0.000000 0.000000 1.136982 -0.424779 -0.173977 6.614803 19.522351 -0.362018 -10.387460 -16.400926 -2.689622 0.000000 0.000000 0.000000 0.000000 0.000000 0.000000 -0.230622 -0.041957 44.760597 -0.000000 0.000000 0.000000 -0.000000 0.000000 0.000000 0.000000 0.000000 0.000000 -0.230622 -0.041957 44.760597 -0.000000 0.000000 0.000000 -0.000000 0.000000 0.000000 0.000000 0.000000 0.000000
-123.551645 80.485314 287.923944 0.394880 -0.250541 -45.062003 -0.456270 -0.102560 45.062458 -0.000000 0.000000 0.000000 -0.000000 0.000000 0.000000 0.000000 0.000000 0.000000 0.669509 0.981445 -0.415900 2.058659 -0.223338 -0.118446 1.788663 -3.851653 0.621716 -3.711747 11.016796 0.654724 0.000000 0.000000 0.000000 0.000000 0.000000 0.000000 0.632361 -0.609693 0.068015 1.498686 -0.158607 -0.401976 9.571026 29.084840 -1.816301 -17.061554 -22.533174 -5.701306 0.000000 0.000000 0.000000 0.000000 0.000000 0.000000 -0.456270 -0.102560 45.062458 -0.000000 0.000000 0.000000 -0.000000 0.000000 0.000000 0.000000 0.000000 0.000000 -0.456270 -0.102560 45.062458 -0.000000 0.000000 0.000000 -0.000000 0.000000 0.000000 0.000000 0.000000 0.000000
-123.417715 80.479224 288.109406 0.604780 -0.353865 -45.378070 -0.676675 -0.181900 45.378863 -0.000000 0.000000 0.000000 -0.000000 0.000000 0.000000 0.000000 0.000000 0.000000 1.015858 1.374101 -0.606142 3.002319 -0.501921 -0.164937 2.296603 -5.129244 0.986000 -5.045211 14.714488 0.879080 0.000000 0.000000 0.000000 0.000000 0.000000 0.000000 0.904928 -0.846212 0.100901 2.076776 -0.180833 -0.566970 10.881112 34.276166 -3.157953 -21.614214 -24.304586 -7.924663 0.000000 0.000000 0.000000 0.000000 0.000000 0.000000 -0.676675 -0.181900 45.378863 -0.000000 0.000000 0.000000 -0.665736 0.283887 0.576776 0.000000 0.000000 0.000000 -1.458854 -0.474703 45.377459 0.757815 -0.351055 -0.000756 -0.040226 -1.001821 -0.558499 0.000000 0.000000 0.000000
-123.256637 80.480952 288.280379 0.823034 -0.442608 -45.708213 -0.891542 -0.280058 45.709213 -0.000000 0.000000 0.000000 -0.000000 0.000000 0.000000 0.000000 0.000000 0.000000 1.369579 1.701330 -0.783927 3.885761 -0.886600 -0.200938 2.431101 -5.911755 1.328732 -5.895346 17.160475 1.006889 0.000000 0.000000 0.000000 0.000000 0.000000 0.000000 1.151552 -1.040762 0.132704 2.537131 -0.159241 -0.707690 11.318307 37.326051 -4.269558 -24.659746 -24.257916 -9.289828 0.000000 0.000000 0.000000 0.000000 0.000000 0.000000 -1.872591 -0.237851 45.583864 0.656454 -0.730281 0.125099 -0.738660 0.380063 0.663316 0.000000 0.000000 0.000000 -1.969951 -0.709179 45.702986 1.060222 -0.472202 0.001287 -0.129022 -1.361481 -0.717230 0.000000 0.000000 0.000000
-123.068412 80.490500 288.436862 1.049681 -0.516800 -46.051949 -1.100551 -0.397102 46.052869 -0.000000 0.000000 0.000000 -0.111130 0.782179 -0.220901 0.000000 0.000000 0.000000 1.730472 1.963055 -0.948724 4.707297 -1.372363 -0.225527 2.104984 -6.158190 1.616489 -6.164011 18.326115 1.021706 0.000000 0.000000 0.000000 0.000000 0.000000 0.000000 1.374125 -1.195328 0.163254 2.878003 -0.090694 -0.824034 11.230155 39.154235 -5.194034 -26.397356 -23.684604 -9.850374 0.000000 0.000000 0.000000 0.000000 0.000000 0.000000 -2.382977 -0.412728 45.893563 0.903762 -0.909979 0.157420 -0.740295 0.479841 0.699932 0.000000 0.000000 0.000000 -2.492561 -0.982810 46.038683 1.387770 -0.595495 0.004635 -0.253005 -1.733141 -0.863893 0.000000 0.000000 0.000000
-122.805652 80.511696 288.616285 1.324602 -0.619228 -46.598302 -0.532717 -0.181272 46.634062 -0.826668 0.357147 -0.027213 -0.040032 0.982919 -0.287368 0.000000 0.000000 0.000000 2.203536 2.190560 -1.136953 5.732864 -2.294654 -0.243213 -0.061763 -5.953016 1.739263 -3.943298 18.809813 0.870917 0.000000 0.000000 0.000000 0.000000 0.000000 0.000000 1.611035 -1.311637 0.198958 3.307013 -0.061321 -0.958978 10.053211 41.258234 -7.234156 -24.920567 -25.552078 -8.124575 0.000000 0.000000 0.000000 0.000000 0.000000 0.000000 -3.001977 -0.710709 46.405650 1.257943 -1.069408 0.187298 -0.622582 0.654165 0.677046 0.000000 0.000000 0.000000 -3.158041 -1.326184 46.572391 1.808902 -0.763473 0.009513 -0.220748 -1.839193 -0.945333 0.000000 0.000000 0.000000
-122.527840 80.543666 288.759779 1.658571 -0.687537 -46.994370 -0.547295 -0.211656 47.042940 -0.293719 0.221644 0.025529 -1.058575 1.471107 -0.414040 0.000000 0.000000 0.000000 1.786669 2.476993 -1.346237 6.595305 -3.109713 -0.265857 -2.117764 -2.748622 2.066106 -2.709576 14.504842 0.441730 0.000000 0.000000 0.000000 0.000000 0.000000 0.000000 0.976277 -1.212055 0.158148 3.433266 0.012352 -1.039797 8.049919 40.873017 -8.112262 -22.575729 -28.227695 -5.984519 0.000000 0.000000 0.000000 0.000000 0.000000 0.000000 -3.629589 -1.079910 46.761896 1.611446 -1.223811 0.217264 -0.488994 0.650985 0.579873 0.000000 0.000000 0.000000 -3.827636 -1.962706 46.929954 2.387582 -0.770771 0.028002 -0.425962 -2.104723 -0.983718 0.000000 0.000000 0.000000
-122.260156 80.579700 288.844136 1.913542 -0.681591 -47.270735 -0.582877 -0.233839 47.326603 -0.333221 0.249837 0.030006 -1.097256 1.559782 -0.480747 0.000000 0.000000 0.000000 2.033775 2.485440 -1.488624 7.239981 -3.605692 -0.270404 -4.782525 -0.481081 2.316106 -0.381096 10.848870 0.207152 0.000000 0.000000 0.000000 0.000000 0.000000 0.000000 0.968450 -1.325506 0.174337 3.230695 0.258810 -1.058595 6.735273 40.699384 -9.161903 -18.225028 -29.865177 -2.741351 0.000000 0.000000 0.000000 0.000000 0.000000 0.000000 -4.103915 -1.407552 46.996721 1.202285 -0.942870 -0.033520 0.449228 0.324225 0.713921 0.000000 0.000000 0.000000 -4.327260 -2.633304 47.157537 2.957040 -0.705546 0.049067 -0.366528 -2.528492 -1.270568 0.000000 0.000000 0.000000
-122.035796 80.615543 288.892763 2.061938 -0.584322 -47.479349 -0.567179 -0.270586 47.537641 -0.346918 0.226576 0.033929 -0.850426 1.481444 -0.516478 0.000000 0.000000 0.000000 2.179300 2.493769 -1.581157 7.512358 -3.949731 -0.241059 -6.491232 0.282515 2.408415 1.374514 7.355714 0.164573 0.000000 0.000000 0.000000 0.000000 0.000000 0.000000 0.954166 -1.260475 0.191509 2.788832 -0.129868 -1.029087 7.411351 41.680516 -9.672201 -16.224530 -28.695658 -1.483645 0.000000 0.000000 0.000000 0.000000 0.000000 0.000000 -4.512939 -1.638258 47.142074 1.446510 -1.325987 0.019104 0.757314 -0.296365 0.259614 0.000000 0.000000 0.000000 -4.603605 -3.290623 47.312296 3.474351 -0.576308 0.070033 -3.143621 -6.056384 -1.887028 0.000000 0.000000 0.000000
-121.859863 80.653223 288.906206 2.129582 -0.482238 -47.476012 -0.533278 -0.311647 47.534408 -0.336679 0.180393 0.037741 -0.632858 1.272504 -0.490377 0.000000 0.000000 0.000000 2.197775 2.496801 -1.612489 7.735329 -4.511569 -0.209909 -9.452043 2.466945 2.574678 5.177039 2.393173 0.241112 0.000000 0.000000 0.000000 0.000000 0.000000 0.000000 0.890282 -1.040825 0.198620 2.678884 -0.299024 -1.014649 10.646072 44.552721 -10.071597 -20.928886 -28.245242 -5.117553 0.000000 0.000000 0.000000 0.000000 0.000000 0.000000 -4.903089 -1.730846 47.065983 2.472728 -1.944116 0.360786 -0.000000 0.000000 0.000000 0.000000 0.000000 0.000000 -4.861323 -2.901530 47.342593 3.294926 -1.133028 0.044558 0.337997 -2.915920 -1.903930 0.000000 0.000000 0.000000
-121.740852 80.682214 288.890765 2.109488 -0.420591 -47.367437 -0.459287 -0.360450 47.425988 -0.304903 0.109692 0.042714 -0.702508 0.844882 -0.331674 0.000000 0.000000 0.000000 2.112811 2.488319 -1.575884 7.362504 -4.604450 -0.187163 -9.727425 2.165750 2.405595 6.967909 1.886321 0.351061 0.000000 0.000000 0.000000 0.000000 0.000000 0.000000 0.737558 -0.635392 0.185118 2.864777 0.264569 -0.988060 13.453201 46.133723 -10.068033 -25.339314 -29.630636 -8.985012 0.000000 0.000000 0.000000 0.000000 0.000000 0.000000 -5.178611 -1.674199 46.899976 2.646690 -2.234278 0.419281 -0.000000 0.000000 0.000000 0.000000 0.000000 0.000000 -4.935847 -1.270178 47.380967 1.353002 -2.720699 -0.317931 2.917470 -0.034786 -1.260328 0.000000 0.000000 0.000000
